<?xml version="1.0" encoding="utf-8"?>
<!DOCTYPE svg PUBLIC "-//W3C//DTD SVG 1.1//EN" "http://www.w3.org/Graphics/SVG/1.1/DTD/svg11.dtd">
<svg version="1.1" baseProfile="full"
 xmlns="http://www.w3.org/2000/svg"
 xmlns:xlink="http://www.w3.org/1999/xlink"
 xmlns:ev="http://www.w3.org/2001/xml-events" 
  height="76px" 
  width="61px" 
>
<path opacity="0.502" fill="rgb( 92, 97, 115 )"
 d="M59.298,32.1130000000001 C59.298,32.1130000000001 54.499,32.1130000000001 54.499,32.1130000000001 C53.836,32.1130000000001 53.299,31.577 53.299,30.915 C53.299,30.252 53.836,29.716 54.499,29.716 C54.499,29.716 59.298,29.716 59.298,29.716 C59.961,29.716 60.498,30.252 60.498,30.915 C60.498,31.577 59.961,32.1130000000001 59.298,32.1130000000001 ZM50.899,52.487 C50.592,52.487 50.285,52.369 50.051,52.135 C50.051,52.135 46.451,48.54 46.451,48.54 C45.982,48.072 45.982,47.314 46.451,46.846 C46.919,46.378 47.679,46.378 48.147,46.846 C48.147,46.846 51.747,50.441 51.747,50.441 C52.216,50.909 52.216,51.667 51.747,52.135 C51.513,52.369 51.206,52.487 50.899,52.487 ZM48.147,14.984 C47.913,15.218 47.606,15.335 47.299,15.335 C46.992,15.335 46.685,15.218 46.451,14.984 C45.982,14.516 45.982,13.758 46.451,13.29 C46.451,13.29 50.051,9.69399999999996 50.051,9.69399999999996 C50.519,9.226 51.279,9.226 51.747,9.69399999999996 C52.216,10.163 52.216,10.921 51.747,11.389 C51.747,11.389 48.147,14.984 48.147,14.984 ZM30.5,8.14499999999998 C29.837,8.14499999999998 29.3,7.60900000000004 29.3,6.94600000000003 C29.3,6.94600000000003 29.3,2.15300000000002 29.3,2.15300000000002 C29.3,1.49000000000001 29.837,0.95399999999995 30.5,0.95399999999995 C31.163,0.95399999999995 31.7,1.49000000000001 31.7,2.15300000000002 C31.7,2.15300000000002 31.7,6.94600000000003 31.7,6.94600000000003 C31.7,7.60900000000004 31.163,8.14499999999998 30.5,8.14499999999998 ZM13.701,15.335 C13.394,15.335 13.087,15.218 12.853,14.984 C12.853,14.984 9.253,11.389 9.253,11.389 C8.78400000000001,10.921 8.78400000000001,10.163 9.253,9.69399999999996 C9.721,9.226 10.481,9.226 10.949,9.69399999999996 C10.949,9.69399999999996 14.549,13.29 14.549,13.29 C15.018,13.758 15.018,14.516 14.549,14.984 C14.315,15.218 14.008,15.335 13.701,15.335 ZM6.501,32.1130000000001 C6.501,32.1130000000001 1.702,32.1130000000001 1.702,32.1130000000001 C1.039,32.1130000000001 0.502,31.577 0.502,30.915 C0.502,30.252 1.039,29.716 1.702,29.716 C1.702,29.716 6.501,29.716 6.501,29.716 C7.164,29.716 7.70099999999999,30.252 7.70099999999999,30.915 C7.70099999999999,31.577 7.164,32.1130000000001 6.501,32.1130000000001 ZM12.853,46.846 C13.321,46.378 14.081,46.378 14.549,46.846 C15.018,47.314 15.018,48.072 14.549,48.54 C14.549,48.54 10.949,52.135 10.949,52.135 C10.715,52.369 10.408,52.487 10.101,52.487 C9.794,52.487 9.48699999999999,52.369 9.253,52.135 C8.78400000000001,51.667 8.78400000000001,50.909 9.253,50.441 C9.253,50.441 12.853,46.846 12.853,46.846 ZM30.5,10.542 C42.51,10.542 50.899,18.919 50.899,30.915 C50.899,35.731 49.425,39.428 45.814,43.675 C45.793,43.702 41.287,49.442 40.259,57.266 C40.18,58.6660000000001 39.104,60.875 36.5,60.875 C36.5,60.875 24.5,60.875 24.5,60.875 C21.77,60.875 20.844,58.481 20.735,57.2140000000001 C19.711,49.413 15.208,43.704 15.163,43.647 C11.574,39.397 10.101,35.701 10.101,30.915 C10.101,18.919 18.489,10.542 30.5,10.542 ZM24.5,41.701 C24.5,41.701 26.9,41.701 26.9,41.701 C26.9,41.701 26.9,57.28 26.9,57.28 C26.9,57.942 27.437,58.478 28.1,58.478 C28.763,58.478 29.3,57.942 29.3,57.28 C29.3,57.28 29.3,41.701 29.3,41.701 C29.3,41.701 31.7,41.701 31.7,41.701 C31.7,41.701 31.7,57.28 31.7,57.28 C31.7,57.942 32.237,58.478 32.9,58.478 C33.562,58.478 34.1,57.942 34.1,57.28 C34.1,57.28 34.1,41.701 34.1,41.701 C34.1,41.701 36.5,41.701 36.5,41.701 C39.146,41.701 41.299,39.55 41.299,36.907 C41.299,34.264 39.146,32.1130000000001 36.5,32.1130000000001 C33.853,32.1130000000001 31.7,34.264 31.7,36.907 C31.7,36.907 31.7,39.304 31.7,39.304 C31.7,39.304 29.3,39.304 29.3,39.304 C29.3,39.304 29.3,36.907 29.3,36.907 C29.3,34.264 27.147,32.1130000000001 24.5,32.1130000000001 C21.854,32.1130000000001 19.701,34.264 19.701,36.907 C19.701,39.55 21.854,41.701 24.5,41.701 ZM24.5,34.51 C25.824,34.51 26.9,35.5839999999999 26.9,36.907 C26.9,36.907 26.9,39.304 26.9,39.304 C26.9,39.304 24.5,39.304 24.5,39.304 C23.177,39.304 22.1,38.228 22.1,36.907 C22.1,35.5839999999999 23.177,34.51 24.5,34.51 ZM36.5,34.51 C37.823,34.51 38.9,35.5839999999999 38.9,36.907 C38.9,38.228 37.823,39.304 36.5,39.304 C36.5,39.304 34.1,39.304 34.1,39.304 C34.1,39.304 34.1,36.907 34.1,36.907 C34.1,35.5839999999999 35.176,34.51 36.5,34.51 ZM24.265,63.296 C24.265,63.296 36.264,60.899 36.264,60.899 C36.916,60.77 37.547,61.1900000000001 37.676,61.8390000000001 C37.806,62.4880000000001 37.385,63.119 36.735,63.249 C36.735,63.249 24.736,65.646 24.736,65.646 C24.656,65.662 24.577,65.669 24.499,65.669 C23.939,65.669 23.438,65.276 23.324,64.706 C23.194,64.057 23.615,63.426 24.265,63.296 ZM24.265,68.09 C24.265,68.09 36.264,65.693 36.264,65.693 C36.916,65.562 37.547,65.9829999999999 37.676,66.6319999999999 C37.806,67.282 37.385,67.913 36.735,68.043 C36.735,68.043 24.736,70.4400000000001 24.736,70.4400000000001 C24.656,70.456 24.577,70.463 24.499,70.463 C23.939,70.463 23.438,70.0700000000001 23.324,69.5 C23.194,68.85 23.615,68.2190000000001 24.265,68.09 ZM25.465,72.643 C25.465,72.643 35.064,70.726 35.064,70.726 C35.717,70.596 36.347,71.018 36.476,71.6660000000001 C36.606,72.316 36.185,72.946 35.535,73.076 C35.535,73.076 25.936,74.9930000000001 25.936,74.9930000000001 C25.856,75.01 25.777,75.0170000000001 25.699,75.0170000000001 C25.139,75.0170000000001 24.637,74.622 24.524,74.054 C24.394,73.404 24.815,72.773 25.465,72.643 Z "/>
</svg>
