<?xml version="1.0" encoding="utf-8"?>
<!DOCTYPE svg PUBLIC "-//W3C//DTD SVG 1.1//EN" "http://www.w3.org/Graphics/SVG/1.1/DTD/svg11.dtd">
<svg version="1.1" baseProfile="full"
 xmlns="http://www.w3.org/2000/svg"
 xmlns:xlink="http://www.w3.org/1999/xlink"
 xmlns:ev="http://www.w3.org/2001/xml-events" 
  height="68px" 
  width="60px" 
>
<path opacity="0.502" fill="rgb( 92, 97, 115 )"
 d="M59.416,52.575 C59.416,52.575 31.111,67.998 31.111,67.998 C31.111,67.998 31.111,34.266 31.111,34.266 C31.111,34.266 60,18.523 60,18.523 C60,18.523 60,51.585 60,51.585 C60,51.997 59.775,52.378 59.416,52.575 ZM1.11099999999999,16.575 C1.11099999999999,16.575 29.473,1.12 29.473,1.12 C29.802,0.94200000000001 30.198,0.94200000000001 30.527,1.12 C30.527,1.12 58.889,16.575 58.889,16.575 C58.889,16.575 30,32.317 30,32.317 C30,32.317 1.11099999999999,16.575 1.11099999999999,16.575 ZM28.889,67.998 C28.889,67.998 0.584,52.575 0.584,52.575 C0.22500000000002,52.378 0,51.997 0,51.585 C0,51.585 0,18.524 0,18.524 C0,18.524 28.889,34.266 28.889,34.266 C28.889,34.266 28.889,67.998 28.889,67.998 Z "/>
</svg>
