<?xml version="1.0" encoding="UTF-8" standalone="no"?>
<svg width="238px" height="49px" viewBox="0 0 238 49" version="1.1" xmlns="http://www.w3.org/2000/svg" xmlns:xlink="http://www.w3.org/1999/xlink" xmlns:sketch="http://www.bohemiancoding.com/sketch/ns">
    <!-- Generator: Sketch 3.3 (11970) - http://www.bohemiancoding.com/sketch -->
    <title>logo</title>
    <desc>Created with Sketch.</desc>
    <defs></defs>
    <g id="Page-1" stroke="none" stroke-width="1" fill="none" fill-rule="evenodd" sketch:type="MSPage">
        <g id="logo" sketch:type="MSLayerGroup" fill="#FFFFFF">
            <g id="Group" transform="translate(57.000000, 6.000000)" sketch:type="MSShapeGroup">
                <path d="M139.479,16.056 C138.951,14.619 138.202,13.403 137.226,12.406 C136.252,11.407 135.078,10.639 133.707,10.096 C132.335,9.553 130.81,9.282 129.138,9.282 C127.451,9.282 125.92,9.553 124.54,10.096 C123.162,10.639 121.988,11.407 121.014,12.406 C120.038,13.403 119.283,14.619 118.748,16.056 C118.212,17.493 117.942,19.1 117.942,20.874 C117.942,22.664 118.213,24.276 118.748,25.714 C119.284,27.151 120.039,28.375 121.014,29.387 C121.988,30.399 123.162,31.177 124.54,31.72 C125.92,32.261 127.451,32.532 129.138,32.532 C130.809,32.532 132.334,32.261 133.707,31.72 C135.077,31.177 136.252,30.399 137.226,29.387 C138.202,28.375 138.951,27.151 139.479,25.714 C140.005,24.277 140.27,22.664 140.27,20.874 C140.27,19.1 140.005,17.493 139.479,16.056 L139.479,16.056 Z M133.311,26.462 C132.409,27.724 131.016,28.355 129.139,28.355 C127.233,28.355 125.824,27.716 124.909,26.447 C123.992,25.18 123.529,23.338 123.529,20.919 C123.529,18.498 123.992,16.644 124.909,15.361 C125.824,14.078 127.232,13.44 129.139,13.44 C131.016,13.44 132.41,14.079 133.311,15.354 C134.213,16.629 134.661,18.486 134.661,20.92 C134.661,23.354 134.213,25.202 133.311,26.462 L133.311,26.462 Z" id="Shape"></path>
                <path d="M115.572,15.822 C115.17,14.392 114.598,13.19 113.857,12.216 C113.117,11.24 112.237,10.499 111.217,9.986 C110.199,9.473 109.069,9.216 107.838,9.216 C106.254,9.216 104.876,9.538 103.702,10.184 C102.53,10.828 101.479,11.673 100.557,12.713 L100.117,10.624 C99.898,9.963 99.435,9.633 98.731,9.633 L95.409,9.633 C95.409,19.624 95.424,30.802 95.424,40.782 C97.342,40.666 98.689,40.243 99.465,39.509 C100.294,38.726 100.75,37.285 100.832,35.188 C100.834,33.966 100.843,31.547 100.843,30.333 C101.546,31.023 102.345,31.558 103.241,31.947 C104.135,32.336 105.214,32.532 106.474,32.532 C107.955,32.532 109.297,32.233 110.494,31.638 C111.689,31.045 112.707,30.224 113.551,29.168 C114.393,28.112 115.04,26.865 115.493,25.428 C115.948,23.991 116.175,22.428 116.175,20.741 C116.174,18.894 115.976,17.251 115.572,15.822 L115.572,15.822 Z M110.191,24.138 C109.941,25.099 109.589,25.897 109.127,26.528 C108.666,27.159 108.1,27.628 107.44,27.935 C106.78,28.244 106.039,28.398 105.219,28.398 C104.367,28.398 103.584,28.244 102.857,27.935 C102.131,27.628 101.456,27.1 100.84,26.351 L100.84,16.232 C101.543,15.369 102.293,14.694 103.083,14.217 C103.874,13.741 104.837,13.504 105.965,13.504 C106.684,13.504 107.33,13.637 107.894,13.9 C108.458,14.165 108.935,14.582 109.331,15.154 C109.727,15.726 110.035,16.467 110.248,17.384 C110.46,18.299 110.563,19.421 110.563,20.741 C110.564,22.047 110.439,23.177 110.191,24.138 L110.191,24.138 Z" id="Shape"></path>
                <path d="M177.883,26.351 C177.546,26.351 177.201,26.454 176.842,26.66 C176.482,26.866 176.064,27.093 175.588,27.342 C175.112,27.592 174.553,27.819 173.915,28.024 C173.278,28.228 172.516,28.331 171.635,28.331 C170.756,28.331 169.956,28.192 169.23,27.921 C168.506,27.649 167.875,27.239 167.347,26.69 C166.819,26.139 166.394,25.444 166.07,24.599 C165.748,23.756 165.542,22.758 165.454,21.601 L179.424,21.601 C179.921,21.601 180.259,21.454 180.436,21.168 C180.611,20.882 180.699,20.331 180.699,19.51 C180.699,17.882 180.457,16.43 179.967,15.162 C179.473,13.895 178.793,12.823 177.928,11.95 C177.063,11.077 176.03,10.417 174.827,9.962 C173.624,9.508 172.311,9.282 170.889,9.282 C169.202,9.282 167.693,9.574 166.349,10.161 C165.007,10.748 163.871,11.539 162.941,12.545 C162.009,13.549 161.29,14.729 160.791,16.086 C160.294,17.443 160.044,18.894 160.044,20.434 C160.044,22.414 160.33,24.151 160.902,25.655 C161.474,27.159 162.259,28.419 163.256,29.438 C164.253,30.458 165.427,31.228 166.776,31.748 C168.125,32.268 169.584,32.531 171.152,32.531 C171.945,32.531 172.766,32.474 173.609,32.356 C174.451,32.24 175.28,32.034 176.094,31.748 C176.908,31.462 177.685,31.081 178.433,30.604 C179.182,30.128 179.855,29.541 180.457,28.837 L178.896,26.857 C178.674,26.521 178.336,26.351 177.883,26.351 L177.883,26.351 Z M167.294,14.516 C168.196,13.622 169.427,13.174 170.998,13.174 C171.804,13.174 172.515,13.308 173.123,13.578 C173.731,13.848 174.23,14.222 174.627,14.693 C175.024,15.162 175.323,15.705 175.521,16.328 C175.719,16.951 175.815,17.619 175.815,18.322 L165.564,18.322 C165.813,16.68 166.393,15.412 167.294,14.516 L167.294,14.516 Z" id="Shape"></path>
                <path d="M156.704,21.058 C156.184,20.597 155.589,20.216 154.929,19.914 C154.27,19.613 153.601,19.348 152.92,19.113 C152.238,18.879 151.563,18.659 150.903,18.461 C150.244,18.263 149.657,18.044 149.136,17.794 C148.616,17.544 148.196,17.251 147.882,16.921 C147.567,16.591 147.405,16.189 147.405,15.705 C147.405,14.971 147.712,14.376 148.322,13.923 C148.93,13.467 149.767,13.241 150.836,13.241 C151.526,13.241 152.126,13.315 152.633,13.46 C153.138,13.607 153.586,13.769 153.983,13.952 C154.377,14.135 154.73,14.304 155.031,14.451 C155.33,14.598 155.61,14.67 155.873,14.67 C156.123,14.67 156.327,14.619 156.489,14.523 C156.651,14.43 156.805,14.268 156.952,14.033 L158.183,12.074 C157.333,11.239 156.269,10.564 154.992,10.051 C153.717,9.537 152.303,9.281 150.747,9.281 C149.354,9.281 148.13,9.464 147.066,9.838 C146.002,10.212 145.116,10.711 144.405,11.334 C143.692,11.957 143.149,12.689 142.783,13.526 C142.417,14.363 142.234,15.241 142.234,16.166 C142.234,17.163 142.394,18.013 142.71,18.718 C143.025,19.421 143.444,20.016 143.964,20.5 C144.484,20.984 145.077,21.379 145.744,21.695 C146.411,22.01 147.094,22.288 147.791,22.522 C148.487,22.756 149.169,22.97 149.836,23.168 C150.503,23.366 151.098,23.593 151.618,23.843 C152.138,24.093 152.558,24.384 152.872,24.722 C153.186,25.061 153.341,25.492 153.341,26.02 C153.341,26.372 153.274,26.71 153.135,27.04 C152.996,27.37 152.777,27.663 152.476,27.913 C152.175,28.161 151.794,28.359 151.332,28.513 C150.871,28.667 150.312,28.747 149.666,28.747 C148.846,28.747 148.172,28.654 147.636,28.461 C147.1,28.272 146.631,28.067 146.235,27.845 C145.84,27.626 145.495,27.42 145.194,27.229 C144.893,27.038 144.571,26.943 144.233,26.943 C143.896,26.943 143.617,27.01 143.396,27.141 C143.177,27.272 142.986,27.463 142.824,27.713 L141.57,29.781 C142.01,30.177 142.525,30.543 143.104,30.881 C143.682,31.218 144.312,31.512 144.995,31.761 C145.677,32.009 146.388,32.2 147.13,32.339 C147.87,32.48 148.624,32.552 149.402,32.552 C150.87,32.552 152.166,32.362 153.288,31.988 C154.409,31.614 155.349,31.094 156.111,30.425 C156.874,29.758 157.453,28.967 157.842,28.05 C158.231,27.133 158.422,26.136 158.422,25.05 C158.422,24.143 158.268,23.365 157.953,22.719 C157.642,22.078 157.225,21.519 156.704,21.058 L156.704,21.058 Z" id="Shape"></path>
                <path d="M25.343,0.394 L0.243,0.394 L0.243,5.254 L9.834,5.254 C9.834,12.224 9.851,19.153 9.859,26.106 C9.949,28.393 10.446,29.964 11.349,30.816 C12.194,31.615 13.663,32.078 15.752,32.202 L15.752,5.255 L25.343,5.255 L25.343,0.394 L25.343,0.394 Z" id="Shape"></path>
                <path d="M71.471,11.665 C70.832,10.91 70.034,10.323 69.081,9.906 C68.127,9.489 67.035,9.283 65.803,9.283 C65.04,9.283 64.337,9.355 63.692,9.51 C63.046,9.664 62.446,9.876 61.88,10.149 C61.315,10.419 60.78,10.749 60.274,11.138 C59.768,11.527 59.284,11.952 58.829,12.407 L58.455,10.625 C58.235,9.964 57.773,9.634 57.069,9.634 L53.747,9.634 L53.747,32.204 L59.181,32.204 L59.181,15.881 C59.914,15.147 60.692,14.568 61.512,14.143 C62.333,13.718 63.213,13.505 64.152,13.505 C65.442,13.505 66.403,13.88 67.034,14.635 C67.665,15.39 67.98,16.461 67.98,17.839 L67.98,32.203 L73.412,32.203 L73.412,17.839 C73.412,16.579 73.251,15.42 72.921,14.37 C72.593,13.321 72.109,12.42 71.471,11.665 L71.471,11.665 Z" id="Shape"></path>
                <path d="M90.839,21.058 C90.317,20.597 89.724,20.216 89.064,19.914 C88.403,19.613 87.737,19.348 87.055,19.113 C86.373,18.879 85.698,18.659 85.038,18.461 C84.378,18.263 83.792,18.044 83.27,17.794 C82.75,17.544 82.331,17.251 82.017,16.921 C81.702,16.591 81.54,16.189 81.54,15.705 C81.54,14.971 81.848,14.376 82.456,13.923 C83.065,13.467 83.901,13.241 84.971,13.241 C85.66,13.241 86.261,13.315 86.767,13.46 C87.273,13.607 87.72,13.769 88.116,13.952 C88.511,14.135 88.864,14.304 89.163,14.451 C89.464,14.598 89.742,14.67 90.007,14.67 C90.257,14.67 90.461,14.619 90.623,14.523 C90.785,14.43 90.939,14.268 91.086,14.033 L92.317,12.074 C91.467,11.239 90.403,10.564 89.126,10.051 C87.851,9.537 86.436,9.281 84.881,9.281 C83.488,9.281 82.263,9.464 81.2,9.838 C80.137,10.212 79.25,10.711 78.538,11.334 C77.827,11.957 77.285,12.689 76.918,13.526 C76.552,14.363 76.368,15.241 76.368,16.166 C76.368,17.163 76.529,18.013 76.845,18.718 C77.16,19.421 77.579,20.016 78.099,20.5 C78.619,20.984 79.214,21.379 79.881,21.695 C80.548,22.01 81.231,22.288 81.926,22.522 C82.623,22.756 83.305,22.97 83.972,23.168 C84.639,23.366 85.233,23.593 85.754,23.843 C86.274,24.093 86.692,24.384 87.007,24.722 C87.322,25.061 87.476,25.492 87.476,26.02 C87.476,26.372 87.41,26.71 87.271,27.04 C87.132,27.37 86.912,27.663 86.611,27.913 C86.311,28.161 85.929,28.359 85.468,28.513 C85.006,28.667 84.448,28.747 83.803,28.747 C82.981,28.747 82.307,28.654 81.771,28.461 C81.236,28.272 80.767,28.067 80.371,27.845 C79.975,27.626 79.63,27.42 79.33,27.229 C79.029,27.038 78.707,26.943 78.369,26.943 C78.031,26.943 77.752,27.01 77.533,27.141 C77.313,27.272 77.122,27.463 76.96,27.713 L75.707,29.781 C76.146,30.177 76.66,30.543 77.24,30.881 C77.82,31.218 78.449,31.512 79.132,31.761 C79.814,32.009 80.525,32.2 81.265,32.339 C82.006,32.48 82.761,32.552 83.539,32.552 C85.006,32.552 86.304,32.362 87.425,31.988 C88.546,31.614 89.486,31.094 90.248,30.425 C91.011,29.758 91.59,28.967 91.979,28.05 C92.368,27.133 92.558,26.136 92.558,25.05 C92.558,24.143 92.404,23.365 92.087,22.719 C91.776,22.078 91.359,21.519 90.839,21.058 L90.839,21.058 Z" id="Shape"></path>
                <path d="M49.332,14.431 C48.957,13.36 48.408,12.435 47.689,11.665 C47.545,11.511 47.353,11.347 47.138,11.182 C45.996,10.307 44.592,9.948 43.185,9.643 C41.524,9.283 38.78,9.283 37.797,9.283 C35.039,9.283 34.477,9.543 32.214,10.09 C31.012,10.38 28.775,11.622 26.861,13.551 L26.532,10.999 C26.458,10.486 26.312,10.126 26.092,9.928 C25.872,9.73 25.483,9.634 24.925,9.634 L21.735,9.634 L21.735,32.204 L27.169,32.204 L27.169,20.292 C27.169,19.439 27.532,18.144 27.975,17.415 C28.019,17.343 28.072,17.259 28.131,17.166 C28.706,16.271 29.467,15.498 30.366,14.928 C30.436,14.884 30.499,14.846 30.551,14.817 C30.598,14.791 30.657,14.759 30.726,14.724 C32.401,13.855 34.255,13.389 36.141,13.323 C37.059,13.291 37.963,13.261 38.408,13.252 C39.48,13.252 41.306,13.195 42.871,14.188 C43.225,14.413 43.702,14.886 43.897,15.257 C44.316,16.055 44.585,17.206 44.585,18.373 L44.585,19.268 C42.87,19.312 41.344,19.438 40.01,19.649 C38.675,19.862 37.509,20.141 36.505,20.478 C35.5,20.815 34.65,21.212 33.96,21.665 C33.271,22.121 32.713,22.605 32.282,23.118 C31.849,23.631 31.534,24.166 31.342,24.73 C31.152,25.294 31.057,25.866 31.057,26.44 C31.057,27.452 31.218,28.338 31.54,29.101 C31.863,29.863 32.318,30.502 32.904,31.015 C33.49,31.528 34.188,31.909 34.994,32.166 C35.8,32.423 36.681,32.555 37.634,32.555 C38.441,32.555 39.181,32.483 39.848,32.342 C40.516,32.203 41.138,32.005 41.725,31.742 C42.312,31.479 42.876,31.147 43.419,30.758 C43.962,30.371 44.519,29.923 45.092,29.408 L45.576,31.038 C45.737,31.507 45.957,31.816 46.235,31.968 C46.513,32.122 46.91,32.203 47.424,32.203 L49.887,32.203 L49.887,17.949 C49.889,16.672 49.706,15.5 49.332,14.431 L49.332,14.431 Z M44.588,26.374 C43.81,27.196 43.018,27.804 42.204,28.208 C41.39,28.61 40.423,28.816 39.308,28.816 C38.399,28.816 37.666,28.61 37.101,28.2 C36.819,27.995 36.606,27.722 36.464,27.381 C36.322,27.04 36.25,26.631 36.25,26.155 C36.25,25.913 36.285,25.68 36.355,25.456 C36.425,25.232 36.529,25.018 36.668,24.813 C36.738,24.71 36.819,24.611 36.912,24.514 C37.097,24.321 37.328,24.142 37.605,23.975 C37.743,23.892 37.893,23.811 38.054,23.734 C38.699,23.427 39.558,23.17 40.628,22.972 C41.698,22.774 43.018,22.642 44.588,22.568 L44.588,26.374 L44.588,26.374 Z" id="Shape"></path>
            </g>
            <path d="M48.238,0 L34.008,8.831 L24.119,2.64 L14.23,8.831 L0,0 L0,48.111 L14.419,39.1 L24.119,45.172 L33.819,39.1 L48.238,48.111 L48.238,0 L48.238,0 Z M46.538,2.887 L46.538,16.675 L35.516,9.775 L46.538,2.887 L46.538,2.887 Z M1.7,2.887 L12.722,9.775 L1.7,16.675 L1.7,2.887 L1.7,2.887 Z M24.119,43.284 L15.928,38.156 L24.119,33.037 L32.31,38.156 L24.119,43.284 L24.119,43.284 Z" id="Shape" sketch:type="MSShapeGroup"></path>
        </g>
    </g>
</svg>