<svg width="238" height="49" viewBox="0 0 238 49" xmlns="http://www.w3.org/2000/svg" xmlns:sketch="http://www.bohemiancoding.com/sketch/ns"><title>logo-color</title><desc>Created with Sketch.</desc><defs><linearGradient x1="0%" y1="50%" x2="100.001%" y2="50%" id="a"><stop stop-color="#E64749" offset="0%"/><stop stop-color="#F2696B" offset="100%"/></linearGradient></defs><g sketch:type="MSLayerGroup" fill="none"><g fill="#5C6173" sketch:type="MSShapeGroup"><path d="M196.479 22.056c-.528-1.437-1.277-2.653-2.253-3.65-.974-.999-2.148-1.767-3.519-2.31-1.372-.543-2.897-.814-4.569-.814-1.687 0-3.218.271-4.598.814-1.378.543-2.552 1.311-3.526 2.31-.976.997-1.731 2.213-2.266 3.65-.536 1.437-.806 3.044-.806 4.818 0 1.79.271 3.402.806 4.84.536 1.437 1.291 2.661 2.266 3.673.974 1.012 2.148 1.79 3.526 2.333 1.38.541 2.911.812 4.598.812 1.671 0 3.196-.271 4.569-.812 1.37-.543 2.545-1.321 3.519-2.333.976-1.012 1.725-2.236 2.253-3.673.526-1.437.791-3.05.791-4.84 0-1.774-.265-3.381-.791-4.818zm-6.168 10.406c-.902 1.262-2.295 1.893-4.172 1.893-1.906 0-3.315-.639-4.23-1.908-.917-1.267-1.38-3.109-1.38-5.528 0-2.421.463-4.275 1.38-5.558.915-1.283 2.323-1.921 4.23-1.921 1.877 0 3.271.639 4.172 1.914.902 1.275 1.35 3.132 1.35 5.566 0 2.434-.448 4.282-1.35 5.542zM172.572 21.822c-.402-1.43-.974-2.632-1.715-3.606-.74-.976-1.62-1.717-2.64-2.23-1.018-.513-2.148-.77-3.379-.77-1.584 0-2.962.322-4.136.968-1.172.644-2.223 1.489-3.145 2.529l-.44-2.089c-.219-.661-.682-.991-1.386-.991h-3.322l.015 31.149c1.918-.116 3.265-.539 4.041-1.273.829-.783 1.285-2.224 1.367-4.321.002-1.222.011-3.641.011-4.855.703.69 1.502 1.225 2.398 1.614.894.389 1.973.585 3.233.585 1.481 0 2.823-.299 4.02-.894 1.195-.593 2.213-1.414 3.057-2.47.842-1.056 1.489-2.303 1.942-3.74.455-1.437.682-3 .682-4.687-.001-1.847-.199-3.49-.603-4.919zm-5.381 8.316c-.25.961-.602 1.759-1.064 2.39-.461.631-1.027 1.1-1.687 1.407-.66.309-1.401.463-2.221.463-.852 0-1.635-.154-2.362-.463-.726-.307-1.401-.835-2.017-1.584v-10.119c.703-.863 1.453-1.538 2.243-2.015.791-.476 1.754-.713 2.882-.713.719 0 1.365.133 1.929.396.564.265 1.041.682 1.437 1.254.396.572.704 1.313.917 2.23.212.915.315 2.037.315 3.357.001 1.306-.124 2.436-.372 3.397zM234.883 32.351c-.337 0-.682.103-1.041.309-.36.206-.778.433-1.254.682-.476.25-1.035.477-1.673.682-.637.204-1.399.307-2.28.307-.879 0-1.679-.139-2.405-.41-.724-.272-1.355-.682-1.883-1.231-.528-.551-.953-1.246-1.277-2.091-.322-.843-.528-1.841-.616-2.998h13.97c.497 0 .835-.147 1.012-.433.175-.286.263-.837.263-1.658 0-1.628-.242-3.08-.732-4.348-.494-1.267-1.174-2.339-2.039-3.212-.865-.873-1.898-1.533-3.101-1.988-1.203-.454-2.516-.68-3.938-.68-1.687 0-3.196.292-4.54.879-1.342.587-2.478 1.378-3.408 2.384-.932 1.004-1.651 2.184-2.15 3.541-.497 1.357-.747 2.808-.747 4.348 0 1.98.286 3.717.858 5.221.572 1.504 1.357 2.764 2.354 3.783.997 1.02 2.171 1.79 3.52 2.31 1.349.52 2.808.783 4.376.783.793 0 1.614-.057 2.457-.175.842-.116 1.671-.322 2.485-.608.814-.286 1.591-.667 2.339-1.144.749-.476 1.422-1.063 2.024-1.767l-1.561-1.98c-.222-.336-.56-.506-1.013-.506zm-10.589-11.835c.902-.894 2.133-1.342 3.704-1.342.806 0 1.517.134 2.125.404.608.27 1.107.644 1.504 1.115.397.469.696 1.012.894 1.635.198.623.294 1.291.294 1.994h-10.251c.249-1.642.829-2.91 1.73-3.806zM213.704 27.058c-.52-.461-1.115-.842-1.775-1.144-.659-.301-1.328-.566-2.009-.801-.682-.234-1.357-.454-2.017-.652-.659-.198-1.246-.417-1.767-.667-.52-.25-.94-.543-1.254-.873-.315-.33-.477-.732-.477-1.216 0-.734.307-1.329.917-1.782.608-.456 1.445-.682 2.514-.682.69 0 1.29.074 1.797.219.505.147.953.309 1.35.492.394.183.747.352 1.048.499.299.147.579.219.842.219.25 0 .454-.051.616-.147.162-.093.316-.255.463-.49l1.231-1.959c-.85-.835-1.914-1.51-3.191-2.023-1.275-.514-2.689-.77-4.245-.77-1.393 0-2.617.183-3.681.557-1.064.374-1.95.873-2.661 1.496-.713.623-1.256 1.355-1.622 2.192-.366.837-.549 1.715-.549 2.64 0 .997.16 1.847.476 2.552.315.703.734 1.298 1.254 1.782s1.113.879 1.78 1.195c.667.315 1.35.593 2.047.827.696.234 1.378.448 2.045.646s1.262.425 1.782.675c.52.25.94.541 1.254.879.314.339.469.77.469 1.298 0 .352-.067.69-.206 1.02-.139.33-.358.623-.659.873-.301.248-.682.446-1.144.6-.461.154-1.02.234-1.666.234-.82 0-1.494-.093-2.03-.286-.536-.189-1.005-.394-1.401-.616-.395-.219-.74-.425-1.041-.616-.301-.191-.623-.286-.961-.286-.337 0-.616.067-.837.198-.219.131-.41.322-.572.572l-1.254 2.068c.44.396.955.762 1.534 1.1.578.337 1.208.631 1.891.88.682.248 1.393.439 2.135.578.74.141 1.494.213 2.272.213 1.468 0 2.764-.19 3.886-.564 1.121-.374 2.061-.894 2.823-1.563.763-.667 1.342-1.458 1.731-2.375s.58-1.914.58-3c0-.907-.154-1.685-.469-2.331-.311-.641-.728-1.2-1.249-1.661zM82.343 6.394h-25.1v4.86h9.591c0 6.97.017 13.899.025 20.852.09 2.287.587 3.858 1.49 4.71.845.799 2.314 1.262 4.403 1.386v-26.947h9.591v-4.861zM128.471 17.665c-.639-.755-1.437-1.342-2.39-1.759-.954-.417-2.046-.623-3.278-.623-.763 0-1.466.072-2.111.227-.646.154-1.246.366-1.812.639-.565.27-1.1.6-1.606.989s-.99.814-1.445 1.269l-.374-1.782c-.22-.661-.682-.991-1.386-.991h-3.322v22.57h5.434v-16.323c.733-.734 1.511-1.313 2.331-1.738.821-.425 1.701-.638 2.64-.638 1.29 0 2.251.375 2.882 1.13.631.755.946 1.826.946 3.204v14.364h5.432v-14.364c0-1.26-.161-2.419-.491-3.469-.328-1.049-.812-1.95-1.45-2.705zM147.839 27.058c-.522-.461-1.115-.842-1.775-1.144-.661-.301-1.327-.566-2.009-.801-.682-.234-1.357-.454-2.017-.652-.66-.198-1.246-.417-1.768-.667-.52-.25-.939-.543-1.253-.873-.315-.33-.477-.732-.477-1.216 0-.734.308-1.329.916-1.782.609-.456 1.445-.682 2.515-.682.689 0 1.29.074 1.796.219.506.147.953.309 1.349.492.395.183.748.352 1.047.499.301.147.579.219.844.219.25 0 .454-.051.616-.147.162-.093.316-.255.463-.49l1.231-1.959c-.85-.835-1.914-1.51-3.191-2.023-1.275-.514-2.69-.77-4.245-.77-1.393 0-2.618.183-3.681.557-1.063.374-1.95.873-2.662 1.496-.711.623-1.253 1.355-1.62 2.192-.366.837-.55 1.715-.55 2.64 0 .997.161 1.847.477 2.552.315.703.734 1.298 1.254 1.782s1.115.879 1.782 1.195c.667.315 1.35.593 2.045.827.697.234 1.379.448 2.046.646.667.198 1.261.425 1.782.675.52.25.938.541 1.253.879.315.339.469.77.469 1.298 0 .352-.066.69-.205 1.02-.139.33-.359.623-.66.873-.3.248-.682.446-1.143.6-.462.154-1.02.234-1.665.234-.822 0-1.496-.093-2.032-.286-.535-.189-1.004-.394-1.4-.616-.396-.219-.741-.425-1.041-.616-.301-.191-.623-.286-.961-.286-.338 0-.617.067-.836.198-.22.131-.411.322-.573.572l-1.253 2.068c.439.396.953.762 1.533 1.1.58.337 1.209.631 1.892.88.682.248 1.393.439 2.133.578.741.141 1.496.213 2.274.213 1.467 0 2.765-.19 3.886-.564 1.121-.374 2.061-.894 2.823-1.563.763-.667 1.342-1.458 1.731-2.375s.579-1.914.579-3c0-.907-.154-1.685-.471-2.331-.311-.641-.728-1.2-1.248-1.661zM106.332 20.431c-.375-1.071-.924-1.996-1.643-2.766-.144-.154-.336-.318-.551-.483-1.142-.875-2.546-1.234-3.953-1.539-1.661-.36-4.405-.36-5.388-.36-2.758 0-3.32.26-5.583.807-1.202.29-3.439 1.532-5.353 3.461l-.329-2.552c-.074-.513-.22-.873-.44-1.071-.22-.198-.609-.294-1.167-.294h-3.19v22.57h5.434v-11.912c0-.853.363-2.148.806-2.877l.156-.249c.575-.895 1.336-1.668 2.235-2.238l.185-.111.175-.093c1.675-.869 3.529-1.335 5.415-1.401.918-.032 1.822-.062 2.267-.071 1.072 0 2.898-.057 4.463.936.354.225.831.698 1.026 1.069.419.798.688 1.949.688 3.116v.895c-1.715.044-3.241.17-4.575.381-1.335.213-2.501.492-3.505.829-1.005.337-1.855.734-2.545 1.187-.689.456-1.247.94-1.678 1.453-.433.513-.748 1.048-.94 1.612-.19.564-.285 1.136-.285 1.71 0 1.012.161 1.898.483 2.661.323.762.778 1.401 1.364 1.914.586.513 1.284.894 2.09 1.151.806.257 1.687.389 2.64.389.807 0 1.547-.072 2.214-.213.668-.139 1.29-.337 1.877-.6.587-.263 1.151-.595 1.694-.984.543-.387 1.1-.835 1.673-1.35l.484 1.63c.161.469.381.778.659.93.278.154.675.235 1.189.235h2.463v-14.254c.002-1.277-.181-2.449-.555-3.518zm-4.744 11.943c-.778.822-1.57 1.43-2.384 1.834-.814.402-1.781.608-2.896.608-.909 0-1.642-.206-2.207-.616-.282-.205-.495-.478-.637-.819-.142-.341-.214-.75-.214-1.226 0-.242.035-.475.105-.699.07-.224.174-.438.313-.643.07-.103.151-.202.244-.299.185-.193.416-.372.693-.539.138-.083.288-.164.449-.241.645-.307 1.504-.564 2.574-.762 1.07-.198 2.39-.33 3.96-.404v3.806z" id="Shape"/></g><path d="M48.238 0l-14.23 8.831-9.889-6.191-9.889 6.191-14.23-8.831v48.111l14.419-9.011 9.7 6.072 9.7-6.072 14.419 9.011v-48.111zm-1.7 2.887v13.788l-11.022-6.9 11.022-6.888zm-44.838 0l11.022 6.888-11.022 6.9v-13.788zm22.419 40.397l-8.191-5.128 8.191-5.119 8.191 5.119-8.191 5.128z" fill="url(#a)" sketch:type="MSShapeGroup"/></g></svg>