<?xml version="1.0" encoding="utf-8"?>
<!DOCTYPE svg PUBLIC "-//W3C//DTD SVG 1.1//EN" "http://www.w3.org/Graphics/SVG/1.1/DTD/svg11.dtd">
<svg version="1.1" baseProfile="full"
 xmlns="http://www.w3.org/2000/svg"
 xmlns:xlink="http://www.w3.org/1999/xlink"
 xmlns:ev="http://www.w3.org/2001/xml-events" 
  height="61px" 
  width="60px" 
>
<path fill="rgb( 233, 79, 81 )"
 d="M59.241,31.2429999999999 C58.753,31.73 58.105,31.999 57.416,31.999 C57.415,31.999 57.414,31.999 57.413,31.999 C57.413,31.999 48.04,31.999 48.04,31.999 C45.351,31.999 43.961,29.7270000000001 43.903,29.6300000000001 C43.903,29.6300000000001 40.011,23.3219999999999 40.011,23.3219999999999 C40.011,23.3219999999999 35.103,31.992 35.103,31.992 C34.117,33.7339999999999 34.045,34.6400000000001 34.769,36.21 C34.769,36.21 38.607,44.5350000000001 38.607,44.5350000000001 C40.236,47.0820000000001 38.756,49.7349999999999 38.691,49.848 C38.691,49.848 32.767,59.6610000000001 32.767,59.6610000000001 C32.341,60.4559999999999 31.469,60.9760000000001 30.517,60.9760000000001 C29.091,60.9760000000001 27.931,59.816 27.931,58.3889999999999 C27.931,58.04 28,57.701 28.135,57.3800000000001 C28.135,57.3800000000001 32.299,48.845 32.299,48.845 C33.061,47.2840000000001 32.089,45.712 32.048,45.646 C32.048,45.646 26.848,37.423 26.848,37.423 C26.848,37.423 20.39,44.249 20.39,44.249 C18.753,45.886 17.45,46.4870000000001 15.561,46.4870000000001 C15.561,46.4870000000001 2.58600000000001,46.4870000000001 2.58600000000001,46.4870000000001 C1.16,46.4870000000001 0,45.327 0,43.9000000000001 C0,42.625 0.91200000000001,41.5509999999999 2.16900000000001,41.346 C2.16900000000001,41.346 14.308,40.4059999999999 14.308,40.4059999999999 C15.373,40.3340000000001 15.975,39.451 16,39.414 C16,39.414 24.99,25.348 24.99,25.348 C24.99,25.348 29.287,17.51 29.287,17.51 C29.287,17.51 25.409,17.51 25.409,17.51 C23.79,17.51 22.613,19.0139999999999 22.601,19.029 C22.601,19.029 17.143,26.722 17.143,26.722 C16.66,27.434 15.86,27.8589999999999 15,27.8589999999999 C13.574,27.8589999999999 12.414,26.6990000000001 12.414,25.2719999999999 C12.414,24.798 12.543,24.3340000000001 12.789,23.931 C12.789,23.931 18.875,13.873 18.875,13.873 C20.377,11.3879999999999 22.952,11.3030000000001 23.06,11.3 C23.06,11.3 31.034,11.3 31.034,11.3 C37.544,11.3 42.646,16.5709999999999 42.86,16.7950000000001 C42.889,16.825 42.904,16.8610000000001 42.927,16.893 C42.943,16.913 42.965,16.9259999999999 42.98,16.9469999999999 C42.98,16.9469999999999 47.886,24.5160000000001 47.886,24.5160000000001 C48.692,25.7809999999999 50.357,26.0319999999999 50.374,26.0340000000001 C50.374,26.0340000000001 57.529,26.8309999999999 57.529,26.8309999999999 C58.971,27.027 60,28.1120000000001 60,29.412 C60,30.104 59.73,30.7529999999999 59.241,31.2429999999999 ZM43.314,13.3699999999999 C42.39,13.3699999999999 41.477,13.0830000000001 40.604,12.5160000000001 C37.908,10.7660000000001 37.512,7.62899999999991 39.57,4.32899999999995 C41.593,1.08699999999999 44.664,0.07799999999997 47.327,1.80600000000004 C50.022,3.55799999999999 50.419,6.69499999999994 48.361,9.99299999999994 C47.002,12.171 45.21,13.3699999999999 43.314,13.3699999999999 Z "/>
</svg>
