<?xml version="1.0" encoding="utf-8"?>
<!DOCTYPE svg PUBLIC "-//W3C//DTD SVG 1.1//EN" "http://www.w3.org/Graphics/SVG/1.1/DTD/svg11.dtd">
<svg version="1.1" baseProfile="full"
 xmlns="http://www.w3.org/2000/svg"
 xmlns:xlink="http://www.w3.org/1999/xlink"
 xmlns:ev="http://www.w3.org/2001/xml-events" 
  height="61px" 
  width="61px" 
>
<path opacity="0.502" fill="rgb( 92, 97, 115 )"
 d="M60.497,56.954 C60.497,56.954 42.765,39.222 42.765,39.222 C46.075,35.135 48.068,29.938 48.068,24.283 C48.068,11.167 37.399,0.49800000000005 24.285,0.49800000000005 C11.171,0.49800000000005 0.50099999999998,11.167 0.50099999999998,24.283 C0.50099999999998,37.397 11.171,48.067 24.285,48.067 C29.942,48.067 35.138,46.074 39.225,42.7619999999999 C39.225,42.7619999999999 56.956,60.494 56.956,60.494 C56.956,60.494 60.497,56.954 60.497,56.954 ZM3.005,24.283 C3.005,12.547 12.551,3.00199999999995 24.285,3.00199999999995 C36.019,3.00199999999995 45.564,12.547 45.564,24.283 C45.564,36.018 36.019,45.564 24.285,45.564 C12.551,45.564 3.005,36.018 3.005,24.283 Z "/>
</svg>
